<svg width="18" height="18" viewBox="0 0 18 18" fill="none" xmlns="http://www.w3.org/2000/svg">
<path d="M13.4337 1C13.8843 1.00006 14.3309 1.08837 14.7472 1.26074C15.1636 1.43324 15.5425 1.68696 15.8614 2.00586C16.1801 2.32459 16.4331 2.703 16.6056 3.11914C16.7779 3.53547 16.8672 3.98199 16.8673 4.43262V15.2012C16.8712 15.5964 16.7555 15.9838 16.5362 16.3125C16.3176 16.6401 16.0044 16.8937 15.6388 17.042L15.5997 17.0576C15.3637 17.1507 15.1127 17.1997 14.8585 17.1992C14.5985 17.1985 14.341 17.1465 14.1016 17.0459C13.8629 16.9455 13.6458 16.7993 13.464 16.6152L13.463 16.6143L9.4327 12.6074L9.29208 12.748L5.40438 16.6162L5.40341 16.6172C5.12618 16.8978 4.77078 17.0889 4.38387 17.165C3.99643 17.2412 3.59478 17.1991 3.23153 17.0439L3.22762 17.042C2.86296 16.894 2.55071 16.6402 2.33212 16.3135C2.11232 15.9849 1.99639 15.5969 2.00009 15.2012V4.43262C2.00017 3.52238 2.36229 2.64968 3.00595 2.00586C3.64974 1.36207 4.52328 1.00011 5.43368 1H13.4337ZM5.43368 2.5332C4.93043 2.53332 4.4472 2.73292 4.09091 3.08887C3.73467 3.44511 3.53436 3.92885 3.53427 4.43262V15.2031L3.53915 15.2705C3.54906 15.3378 3.57369 15.4022 3.61141 15.459C3.66181 15.5345 3.73425 15.5947 3.81845 15.6299L3.88192 15.6514C3.94753 15.6681 4.01716 15.6705 4.08505 15.6572L4.15048 15.6387C4.21455 15.6158 4.27324 15.579 4.32137 15.5312L8.89657 10.9834C9.03978 10.8412 9.23396 10.7618 9.43661 10.7617C9.63947 10.7617 9.83433 10.8411 9.97762 10.9834L14.547 15.5293L14.5987 15.5742C14.6537 15.6146 14.7173 15.6422 14.7843 15.6553C14.8718 15.6724 14.9649 15.6647 15.0509 15.6289C15.135 15.5938 15.2075 15.5345 15.2579 15.459C15.2959 15.4018 15.3203 15.3359 15.3302 15.2686L15.335 15.2012V4.43262C15.335 3.92885 15.1346 3.44511 14.7784 3.08887C14.422 2.7326 13.9381 2.53323 13.4347 2.5332H5.43368Z" fill="#741C28"/>
</svg>
