<svg width="18" height="18" viewBox="0 0 18 18" fill="none" xmlns="http://www.w3.org/2000/svg">
    <path fill="#741C28" fill-rule="evenodd" clip-rule="evenodd"
          d="M13.4337 1C13.8843 1.00006 14.3309 1.08837 14.7472 1.26074C15.1636 1.43324 15.5425 1.68696 15.8614 2.00586C16.1801 2.32459 16.4331 2.703 16.6056 3.11914C16.7779 3.53547 16.8672 3.98199 16.8673 4.43262V15.2012C16.8712 15.5964 16.7555 15.9838 16.5362 16.3125C16.3176 16.6401 16.0044 16.8937 15.6388 17.042L15.5997 17.0576C15.3637 17.1507 15.1127 17.1997 14.8585 17.1992C14.5985 17.1985 14.341 17.1465 14.1016 17.0459C13.8629 16.9455 13.6458 16.7993 13.464 16.6152L13.463 16.6143L9.4327 12.6074L9.29208 12.748L5.40438 16.6162L5.40341 16.6172C5.12618 16.8978 4.77078 17.0889 4.38387 17.165C3.99643 17.2412 3.59478 17.1991 3.23153 17.0439L3.22762 17.042C2.86296 16.894 2.55071 16.6402 2.33212 16.3135C2.11232 15.9849 1.99639 15.5969 2.00009 15.2012V4.43262C2.00017 3.52238 2.36229 2.64968 3.00595 2.00586C3.64974 1.36207 4.52328 1.00011 5.43368 1H13.4337Z"/>
</svg>
