<svg width="18" height="18" viewBox="0 0 18 18" fill="none" xmlns="http://www.w3.org/2000/svg">
<path d="M12.131 2.0006C12.3428 2.00863 12.5443 2.09454 12.6944 2.24188C12.8445 2.38928 12.9329 2.58721 12.9411 2.79583C12.9492 3.00305 12.877 3.20496 12.7406 3.36284L7.1793 8.82386L7.03127 8.96963L7.1793 9.1144L12.7499 14.5835C12.8682 14.6987 12.95 14.8471 12.9832 15.0077C13.0164 15.1682 13.0001 15.3347 12.937 15.4863C12.8737 15.6379 12.7657 15.7678 12.6275 15.8592C12.4895 15.9505 12.3272 15.9993 12.1608 16C12.0501 16.0006 11.9396 15.9798 11.837 15.9387C11.7346 15.8975 11.6412 15.8373 11.5626 15.7607L5.24363 9.55776C5.08733 9.40285 5.00007 9.19307 5 8.97466C5 8.7558 5.08782 8.5456 5.24466 8.39055L11.5543 2.19564C11.715 2.06194 11.9208 1.99274 12.131 2.0006Z" fill="#741C28"/>
</svg>
