<svg width="18" height="18" viewBox="0 0 18 18" fill="none" xmlns="http://www.w3.org/2000/svg">
<path d="M8.75 9C9.64002 9 10.51 8.73608 11.2501 8.24162C11.9901 7.74715 12.5669 7.04435 12.9075 6.22208C13.2481 5.39981 13.3372 4.49501 13.1635 3.6221C12.9899 2.74918 12.5613 1.94736 11.932 1.31802C11.3026 0.688685 10.5008 0.260102 9.62791 0.0864683C8.75499 -0.0871652 7.85019 0.00194979 7.02792 0.342544C6.20566 0.683138 5.50285 1.25991 5.00839 1.99994C4.51392 2.73996 4.25 3.60999 4.25 4.5C4.25119 5.69311 4.72568 6.83701 5.56934 7.68067C6.41299 8.52432 7.55689 8.99881 8.75 9ZM8.75 1.5C9.34334 1.5 9.92336 1.67595 10.4167 2.00559C10.9101 2.33524 11.2946 2.80377 11.5216 3.35195C11.7487 3.90013 11.8081 4.50333 11.6924 5.08527C11.5766 5.66722 11.2909 6.20177 10.8713 6.62132C10.4518 7.04088 9.91721 7.3266 9.33527 7.44236C8.75333 7.55811 8.15013 7.4987 7.60195 7.27164C7.05377 7.04458 6.58524 6.66006 6.25559 6.16671C5.92595 5.67337 5.75 5.09335 5.75 4.5C5.75 3.70435 6.06607 2.94129 6.62868 2.37868C7.19129 1.81607 7.95435 1.5 8.75 1.5Z" fill="#741C28"/>
<path d="M8.75 10.5C6.9604 10.502 5.24466 11.2138 3.97922 12.4792C2.71378 13.7447 2.00199 15.4604 2 17.25C2 17.4489 2.07902 17.6397 2.21967 17.7803C2.36032 17.921 2.55109 18 2.75 18C2.94891 18 3.13968 17.921 3.28033 17.7803C3.42098 17.6397 3.5 17.4489 3.5 17.25C3.5 15.8576 4.05312 14.5223 5.03769 13.5377C6.02226 12.5531 7.35761 12 8.75 12C10.1424 12 11.4777 12.5531 12.4623 13.5377C13.4469 14.5223 14 15.8576 14 17.25C14 17.4489 14.079 17.6397 14.2197 17.7803C14.3603 17.921 14.5511 18 14.75 18C14.9489 18 15.1397 17.921 15.2803 17.7803C15.421 17.6397 15.5 17.4489 15.5 17.25C15.498 15.4604 14.7862 13.7447 13.5208 12.4792C12.2553 11.2138 10.5396 10.502 8.75 10.5Z" fill="#741C28"/>
</svg>
