<svg width="146" height="42" viewBox="0 0 146 42" fill="none" xmlns="http://www.w3.org/2000/svg">
<g clip-path="url(#clip0_4031_2646)">
<path d="M32.8089 32.2031H33.9655C33.9655 33.5079 33.9115 35.1841 33.5587 36.7365C33.3716 37.5827 33.1024 38.4854 32.2584 38.4854C32.1018 38.4848 31.9514 38.4234 31.8386 38.3142L32.1124 36.2458L31.7778 36.19L31.6212 37.3327C31.2965 36.0547 30.0828 35.3133 28.9019 35.3133C28.8321 35.3114 28.7622 35.3148 28.6928 35.3232C28.4745 35.1862 28.2369 35.0831 27.9879 35.0175L30.0304 32.2085H31.0873V31.8699H28.6768V32.2085H29.5977L27.6206 34.9403C27.46 34.9227 27.2985 34.9153 27.137 34.9181H26.5575V32.2031H27.6723V31.8645H24.3181V32.2031H25.4329V38.5137H24.3181V38.8523H27.6738V38.5137H26.5606C26.594 37.0996 27.156 36.112 28.1141 35.788C28.3149 36.0119 28.3506 36.1044 28.5848 36.7052C28.6677 36.92 28.7749 37.1967 28.9224 37.5628C29.3741 38.7315 29.946 39.2757 30.7208 39.2757C31.0858 39.2757 31.3535 39.1229 31.5177 38.8439C31.7029 38.9222 31.9003 38.9672 32.101 38.9769C32.9603 38.9769 33.5024 38.3761 33.8606 37.0277C34.2461 35.5273 34.2826 34.0215 34.3168 32.5662L34.3252 32.2001H36.3023V38.5106H35.1928V38.8492H38.5478V38.5106H37.4338V32.2031H38.5478V31.8645H32.8089V32.2031ZM30.9893 38.853C30.7809 38.853 30.6433 38.4816 30.4684 38.0122L30.4334 37.9175C30.1292 37.0767 29.7414 36.1678 29.1711 35.6641C30.2813 35.788 31.3847 36.6639 31.3847 38.0176C31.3847 38.4861 31.2113 38.8538 30.9893 38.8538V38.853ZM26.5591 35.2506H27.0541C27.448 35.2506 27.6959 35.327 27.8959 35.5166C27.3088 35.7681 26.8465 36.2382 26.5591 36.8703V35.2506Z" fill="#7F1023"/>
<path d="M44.7726 36.3758C44.5102 35.8629 44.2737 35.3653 44.2601 34.9105V34.0468C44.2601 31.9998 42.6875 31.6941 41.7507 31.6941C40.1911 31.6941 39.4808 32.7229 39.4808 33.6814C39.4808 34.3693 39.7713 35.0091 40.3234 35.5465C39.3675 36.054 38.9022 36.6876 38.9022 37.4811C38.9022 38.4388 39.5295 39.0098 40.5804 39.0098C41.1614 39.0098 41.9735 38.8569 43.1415 37.6783C43.2 38.5856 43.5772 39.0098 44.3178 39.0098C44.5619 39.0098 45.3064 39.0098 45.3064 37.9901C45.3064 37.4986 45.0783 37.0133 44.8334 36.5004L44.7726 36.3758ZM44.6273 38.4999C44.3072 38.4999 44.2601 38.0643 44.2601 37.8044V36.1404L44.3125 36.2382C44.6342 36.8298 44.9665 37.4413 44.9665 37.9886C44.9665 38.318 44.8463 38.4999 44.6273 38.4999ZM40.7933 35.9531C41.2211 36.2436 41.6769 36.4902 42.1537 36.6892L42.2373 36.7266L42.3476 36.3949L42.2761 36.3643C41.8614 36.1943 41.4624 35.9879 41.0838 35.7475C41.572 35.4417 42.245 35.2063 43.1369 35.0405V37.1891C42.7415 37.6163 41.8564 38.3853 41.1895 38.3853C40.7332 38.3853 40.1873 38.1957 40.1873 37.293C40.1835 36.732 40.3835 36.2925 40.7933 35.9531ZM41.6655 32.0472C42.7354 32.0472 43.1331 32.5892 43.1331 34.0468V34.7018C42.0777 34.8853 41.302 35.1008 40.6367 35.3966C40.0854 34.8922 39.8169 34.3304 39.8169 33.6814C39.8169 32.7329 40.5941 32.0472 41.6655 32.0472Z" fill="#7F1023"/>
<path d="M51.5311 36.8925C51.0795 37.9772 50.3008 38.5986 49.3944 38.5986C48.0629 38.5986 47.2356 37.3817 47.2356 35.4219C47.2356 33.1732 47.9572 32.0327 49.3799 32.0327C50.2871 32.0327 51.0194 32.6121 51.3889 33.6218L51.4171 33.6983L51.7463 33.5874L51.7152 33.5057C51.2855 32.3706 50.4126 31.6934 49.3799 31.6934C47.0128 31.6934 45.9535 33.566 45.9535 35.4211C45.9535 37.5667 47.2462 39.0075 49.1685 39.0075C50.4202 39.0075 51.3198 38.3356 51.8414 37.0118L51.8733 36.9315L51.5623 36.8176L51.5311 36.8925Z" fill="#7F1023"/>
<path d="M58.0335 36.8925C57.5818 37.9771 56.8031 38.6 55.8959 38.6C54.5644 38.6 53.7371 37.3832 53.7371 35.4234C53.7371 33.1746 54.4587 32.0342 55.8822 32.0342C56.7894 32.0342 57.5217 32.6136 57.8905 33.6233L57.9186 33.6997L58.2479 33.5889L58.2175 33.5071C57.7878 32.372 56.9149 31.6948 55.8822 31.6948C53.5151 31.6948 52.4558 33.5675 52.4558 35.4226C52.4558 37.5682 53.7485 39.009 55.6701 39.009C56.9225 39.009 57.8213 38.3371 58.3437 37.0132L58.3757 36.933L58.0639 36.8191L58.0335 36.8925Z" fill="#7F1023"/>
<path d="M58.7597 32.2031H59.8744V38.5137H58.7597V38.8523H66.5296V38.5137H65.4156V32.2031H66.5296V31.8645H58.7597V32.2031ZM61.0006 37.134V32.2031H64.2887V32.8979L61.0006 37.134ZM61.0006 38.5137V37.734L64.2887 33.4979V38.5137H61.0006Z" fill="#7F1023"/>
<path d="M71.4244 35.3133C71.3546 35.3115 71.2847 35.3148 71.2153 35.3232C70.9974 35.186 70.7599 35.0829 70.5112 35.0175L72.5529 32.2085H73.6083V31.8699H71.1978V32.2085H72.1187L70.1416 34.9403C69.9813 34.9227 69.82 34.9153 69.6587 34.9181H69.0793V32.2031H70.1933V31.8645H66.8406V32.2031H67.9546V38.5137H66.8406V38.8523H70.1956V38.5137H69.0839C69.1166 37.0996 69.6793 36.112 70.6374 35.788C70.8374 36.0119 70.8731 36.1044 71.1073 36.7052C71.1902 36.92 71.2974 37.1967 71.445 37.5628C71.9012 38.7315 72.4685 39.2757 73.2441 39.2757C73.8798 39.2757 74.2326 38.8278 74.2326 38.0145C74.2304 36.3222 72.8038 35.3133 71.4244 35.3133ZM73.5118 38.8576C73.3042 38.8576 73.1658 38.4861 72.9909 38.0168L72.9559 37.922C72.6517 37.0813 72.2647 36.1724 71.6936 35.6687C72.8046 35.7925 73.9079 36.6685 73.9079 38.0222C73.9079 38.4861 73.7338 38.8538 73.5118 38.8538V38.8576ZM69.0823 35.2552H69.5781C69.972 35.2552 70.2199 35.3316 70.4199 35.5212C69.8329 35.7727 69.3713 36.2427 69.0839 36.8749L69.0823 35.2552Z" fill="#7F1023"/>
<path d="M80.4407 36.3758C80.1783 35.8629 79.9418 35.3653 79.9281 34.9105V34.0468C79.9281 31.9998 78.3556 31.6941 77.4188 31.6941C75.8592 31.6941 75.1482 32.7229 75.1482 33.6814C75.1482 34.3693 75.4394 35.0091 75.9907 35.5465C75.0349 36.054 74.5703 36.6876 74.5703 37.4811C74.5703 38.4388 75.1976 39.0098 76.2477 39.0098C76.8294 39.0098 77.6416 38.8569 78.8096 37.6783C78.8681 38.5856 79.2445 39.0098 79.9852 39.0098C80.2293 39.0098 80.9737 39.0098 80.9737 37.9901C80.9737 37.4986 80.7456 37.0133 80.5007 36.5004L80.4407 36.3758ZM80.2962 38.4999C79.976 38.4999 79.9281 38.0643 79.9281 37.8044V36.1404L79.9814 36.2382C80.303 36.8298 80.6353 37.4413 80.6353 37.9886C80.6353 38.318 80.5144 38.4999 80.3 38.4999H80.2962ZM76.4622 35.9531C76.8896 36.2439 77.3451 36.4908 77.8218 36.6899L77.9062 36.7274L78.0157 36.3957L77.945 36.3651C77.5303 36.1951 77.1313 35.9887 76.7526 35.7483C77.2408 35.4425 77.9138 35.2071 78.8012 35.0412V37.1898C78.4058 37.6171 77.5214 38.3861 76.8545 38.3861C76.3983 38.3861 75.8523 38.1965 75.8523 37.2938C75.8523 36.732 76.0515 36.2925 76.4622 35.9531ZM77.3336 32.0472C78.4035 32.0472 78.8012 32.5892 78.8012 34.0468V34.7018C77.7458 34.8853 76.9709 35.1008 76.3055 35.3966C75.7535 34.8922 75.485 34.3304 75.485 33.6814C75.485 32.7329 76.2629 32.0472 77.3344 32.0472H77.3336Z" fill="#7F1023"/>
<path d="M94.6552 37.8359C94.6149 38.1416 94.5206 38.5001 94.3008 38.5001C94.081 38.5001 93.9921 38.3128 93.713 37.6646L93.6301 37.4728C93.0925 36.2498 92.6416 35.409 91.3755 35.0329L93.3153 32.2048H94.3677V31.8662H84.7249V32.2048H85.7803L87.7171 35.0329C87.1729 35.1796 86.6868 35.491 86.3248 35.925C86.2614 35.9188 86.1976 35.9162 86.1339 35.9173C85.0747 35.9173 84.0048 36.4952 84.0048 37.7877C84.0048 38.6285 84.5492 39.0061 85.0899 39.0061C86.0533 39.0061 86.5461 38.1416 86.9027 37.2947L87.2381 36.4646C88.162 36.8391 88.7954 37.5951 88.9551 38.5115H87.8692V38.8502H91.2249V38.5115H90.1094V35.2516H90.4485C90.6319 35.2419 90.8153 35.2719 90.9862 35.3395C91.3367 35.5374 91.631 35.9509 91.7679 36.2766L92.1906 37.297C92.6712 38.481 93.2263 39.0084 93.989 39.0084C94.5882 39.0084 94.9479 38.5865 94.9776 37.8496V37.7625H94.662L94.6552 37.8359ZM88.0753 34.958L86.1948 32.2064H88.984V34.916H88.6038C88.4266 34.9122 88.2496 34.9263 88.0753 34.958ZM88.1042 35.3402C88.2707 35.2701 88.4509 35.2392 88.6311 35.25H88.984V37.553C88.6307 36.9059 88.0565 36.4091 87.3673 36.1543C87.5278 35.863 87.7932 35.5168 88.1042 35.3418V35.3402ZM92.8872 32.2018L91.0219 34.9588C90.8436 34.9242 90.6621 34.9088 90.4805 34.9129H90.1094V32.2033L92.8872 32.2018ZM86.0625 36.2575C85.8125 36.6693 85.6026 37.1045 85.4359 37.5569C85.1081 38.3793 84.8488 38.4687 84.7515 38.4687C84.5439 38.4687 84.3713 38.1729 84.3416 37.7892C84.3698 36.7658 85.2146 36.285 86.0625 36.259V36.2575Z" fill="#7F1023"/>
<path d="M100.831 36.3758C100.569 35.8637 100.332 35.3661 100.319 34.9105V34.0468C100.319 31.9998 98.747 31.6941 97.8094 31.6941C96.2497 31.6941 95.5395 32.7229 95.5395 33.6814C95.5395 34.3693 95.83 35.0091 96.3813 35.5465C95.4262 36.054 94.9608 36.6876 94.9608 37.4811C94.9608 38.4388 95.5882 39.0098 96.6383 39.0098C97.22 39.0098 98.0322 38.8569 99.2002 37.6783C99.2587 38.5856 99.6359 39.0098 100.377 39.0098C100.621 39.0098 101.365 39.0098 101.365 37.9901C101.365 37.4986 101.137 37.0133 100.892 36.5004L100.831 36.3758ZM100.687 38.4999C100.367 38.4999 100.319 38.0643 100.319 37.8044V36.1404L100.372 36.2382C100.694 36.8298 101.026 37.4413 101.026 37.9886C101.029 38.318 100.907 38.4999 100.69 38.4999H100.687ZM96.8528 35.9531C97.2812 36.2438 97.7378 36.4904 98.2154 36.6892L98.2998 36.7266L98.4101 36.3949L98.3386 36.3643C97.924 36.1942 97.525 35.9878 97.1463 35.7475C97.6345 35.4417 98.3074 35.2063 99.1994 35.0405V37.1891C98.8032 37.6163 97.9189 38.3853 97.252 38.3853C96.7957 38.3853 96.2497 38.1957 96.2497 37.293C96.2459 36.732 96.4452 36.2925 96.8558 35.9531H96.8528ZM97.725 32.0472C98.7941 32.0472 99.1926 32.5892 99.1926 34.0468V34.7018C98.1363 34.8853 97.3615 35.1008 96.6961 35.3966C96.1441 34.8922 95.8764 34.3304 95.8764 33.6814C95.8794 32.7329 96.6566 32.0472 97.728 32.0472H97.725Z" fill="#7F1023"/>
<path d="M101.663 32.2031H102.778V38.5137H101.663V38.8523H109.363V38.5137H108.248V32.2031H109.363V31.8645H101.663V32.2031ZM103.904 34.9128V32.2031H107.122V34.9128H103.904ZM103.904 38.5137V35.2514H107.122V38.5137H103.904Z" fill="#7F1023"/>
<path d="M113.933 31.6942C113.193 31.6942 112.522 31.9541 111.887 32.4868V31.6216L111.77 31.6728C111.304 31.8776 110.8 32.0771 110.195 32.0771C110.083 32.0771 109.845 32.0626 109.739 32.0496L109.644 32.0374V32.36C109.644 34.0339 109.771 36.1382 110.758 37.5897V41.6614H109.644V42H112.998V41.6614H111.884V38.6002C112.415 38.8803 113.008 39.0202 113.607 39.0068C115.639 38.9801 117.004 37.5049 117.004 35.3379C117.007 32.6512 115.419 31.6942 113.933 31.6942ZM110.76 32.3928V36.953C110.094 35.6987 109.987 34.0484 109.983 32.4249C110.242 32.443 110.503 32.4323 110.76 32.3928ZM115.726 35.3799C115.726 37.3787 114.894 38.6667 113.609 38.6667C112.951 38.6667 112.371 38.5138 111.887 38.2081V32.9095C112.319 32.5503 112.856 32.1177 113.609 32.1177C114.975 32.1177 115.726 33.2764 115.726 35.3799Z" fill="#7F1023"/>
<path d="M123.501 36.4989L123.443 36.3758C123.181 35.8637 122.944 35.3661 122.93 34.9105V34.0468C122.93 31.9998 121.358 31.6941 120.421 31.6941C118.862 31.6941 118.151 32.7229 118.151 33.6814C118.151 34.3693 118.443 35.0091 118.994 35.5465C118.038 36.054 117.573 36.6876 117.573 37.4811C117.573 38.4388 118.2 39.0098 119.251 39.0098C119.833 39.0098 120.644 38.8569 121.812 37.6783C121.87 38.5856 122.248 39.0098 122.988 39.0098C123.232 39.0098 123.977 39.0098 123.977 37.9901C123.975 37.4971 123.744 37.0117 123.501 36.4989ZM123.298 38.4999C122.978 38.4999 122.93 38.0643 122.93 37.8044V36.1404L122.983 36.2382C123.305 36.8298 123.638 37.4413 123.638 37.9886C123.638 38.318 123.517 38.4999 123.298 38.4999ZM119.461 35.9531C119.889 36.2441 120.344 36.491 120.821 36.6899L120.906 36.7274L121.015 36.3957L120.944 36.3651C120.529 36.1948 120.13 35.9884 119.751 35.7483C120.24 35.4425 120.912 35.2071 121.804 35.0412V37.1898C121.409 37.6171 120.525 38.3861 119.857 38.3861C119.401 38.3861 118.855 38.1965 118.855 37.2938C118.853 36.732 119.054 36.2925 119.461 35.9531ZM120.333 32.0472C121.403 32.0472 121.801 32.5892 121.801 34.0468V34.7018C120.745 34.8853 119.969 35.1008 119.305 35.3966C118.753 34.8922 118.484 34.3304 118.484 33.6814C118.487 32.7329 119.265 32.0472 120.336 32.0472H120.333Z" fill="#7F1023"/>
<path d="M19.4256 2.61411C20.2585 3.44813 20.9145 4.44325 21.354 5.53931C22.2037 7.66073 22.2037 10.0304 21.354 12.1518C20.9143 13.248 20.2584 14.2433 19.4256 15.0777C18.2429 16.2436 16.8995 17.0108 15.3954 17.3792H15.4129C13.9897 17.7491 12.4964 17.7491 11.0732 17.3792C9.56908 17.0108 8.22568 16.2436 7.04298 15.0777C6.2085 14.2528 5.55182 13.2641 5.1138 12.1732V22.3651C5.10839 22.6602 5.16376 22.9533 5.27644 23.2258C5.38911 23.4984 5.55665 23.7446 5.76852 23.9489C5.97241 24.1581 6.21646 24.3235 6.48587 24.4351C6.75527 24.5466 7.0444 24.602 7.33574 24.5978H7.35247V24.8745H0V24.5978H0.0174896C0.308805 24.6019 0.597904 24.5464 0.867286 24.4349C1.13667 24.3233 1.38073 24.158 1.58471 23.9489C1.79644 23.7445 1.96384 23.4983 2.07638 23.2257C2.18892 22.9532 2.24417 22.6602 2.23867 22.3651V2.54455C2.24234 2.25101 2.18622 1.95982 2.07375 1.6889C1.96129 1.41798 1.79486 1.17306 1.58471 0.969207C1.38191 0.757968 1.13825 0.590677 0.868724 0.477629C0.5992 0.364581 0.309513 0.308167 0.0174896 0.311858H0V0.0343962H13.2434C13.3354 0.0345652 13.4274 0.0404364 13.5187 0.0519764H13.7772C13.9737 0.0621522 14.1693 0.0853885 14.3627 0.121533C14.7115 0.156767 15.0569 0.220418 15.3954 0.311858C16.8995 0.692509 18.2429 1.45993 19.4256 2.61411ZM7.23308 14.8867C8.82697 16.4883 10.9867 17.3907 13.2404 17.3968C14.3301 17.3948 15.4091 17.1802 16.4174 16.7647C17.4703 16.3332 18.4269 15.6947 19.2309 14.8867C20.0339 14.0204 20.4357 12.9472 20.4362 11.6672C20.4362 10.4789 20.1176 9.21231 19.4804 7.86755C18.8431 6.52279 17.9294 5.23892 16.7391 4.01594C14.9364 2.25027 13.0591 1.10781 11.1074 0.588556C10.9356 0.542695 10.7569 0.496069 10.5751 0.450207C10.1876 0.382409 9.79666 0.336222 9.40407 0.311858H7.3365C7.04446 0.308032 6.75473 0.364384 6.48519 0.47744C6.21564 0.590496 5.972 0.757859 5.76928 0.969207C5.55889 1.17291 5.39224 1.41779 5.27964 1.68873C5.16703 1.95968 5.11085 2.25094 5.11456 2.54455V11.3729C5.52928 12.6984 6.25601 13.9037 7.23308 14.8867ZM43.724 20.9977H44V24.8233H24.1957V24.5459C24.1953 24.5482 24.1955 24.5506 24.1962 24.5528C24.1969 24.5551 24.1981 24.5571 24.1997 24.5588C24.2013 24.5605 24.2033 24.5618 24.2055 24.5626C24.2077 24.5634 24.2101 24.5637 24.2124 24.5634C24.5034 24.5677 24.792 24.5114 25.0603 24.3982C25.3286 24.2849 25.5706 24.1171 25.7713 23.9053C25.9794 23.7004 26.144 23.4551 26.2549 23.1843C26.3659 22.9135 26.421 22.6228 26.4169 22.33V2.51015C26.4214 2.2185 26.3665 1.929 26.2555 1.65951C26.1444 1.39001 25.9796 1.14624 25.7713 0.943219C25.5693 0.733776 25.3268 0.568143 25.0587 0.456533C24.7906 0.344923 24.5026 0.289703 24.2124 0.294278H24.1957V0.0175803H44V3.8432H43.724C43.7331 3.37988 43.6476 2.9196 43.4729 2.49077C43.2982 2.06193 43.0379 1.67364 42.708 1.34986C42.0308 0.669578 41.1984 0.317719 40.2108 0.294278H31.5147C31.2246 0.289658 30.9365 0.344857 30.6684 0.45647C30.4003 0.568082 30.1578 0.73374 29.9559 0.943219C29.7475 1.14624 29.5827 1.39001 29.4717 1.65951C29.3606 1.929 29.3057 2.2185 29.3103 2.51015V11.6328C29.3103 11.9895 29.5227 12.2086 29.9475 12.2901H37.1798C38.179 12.256 39.0155 11.8993 39.6892 11.22C40.3629 10.5408 40.6985 9.70991 40.696 8.72745H40.972V16.1188H40.696C40.696 15.1379 40.3604 14.307 39.6892 13.6262C39.018 12.9454 38.1815 12.5887 37.1798 12.5561H29.9475C29.5227 12.6371 29.3103 12.8563 29.3103 13.2135V22.33C29.3061 22.6228 29.3612 22.9135 29.4722 23.1843C29.5832 23.4551 29.7477 23.7004 29.9559 23.9053C30.1565 24.1172 30.3985 24.2851 30.6668 24.3983C30.9351 24.5116 31.2238 24.5678 31.5147 24.5634H40.2108V24.5459C41.1989 24.5229 42.0313 24.1711 42.708 23.4903C43.0378 23.1666 43.2981 22.7785 43.4728 22.3498C43.6475 21.921 43.733 21.4609 43.724 20.9977ZM69.0048 2.49257V22.3476C69.0026 22.6414 69.0587 22.9328 69.1696 23.2047C69.2805 23.4766 69.4441 23.7236 69.6509 23.9314C69.8576 24.1391 70.1034 24.3035 70.374 24.4149C70.6445 24.5263 70.9344 24.5825 71.2267 24.5803H71.2434V24.8577H63.875V24.5803H63.8925C64.1848 24.5824 64.4746 24.5261 64.745 24.4147C65.0154 24.3032 65.2611 24.1388 65.4678 23.9311C65.6745 23.7233 65.838 23.4763 65.9489 23.2045C66.0598 22.9327 66.1158 22.6414 66.1137 22.3476V13.2074C66.1137 12.8504 65.9015 12.6364 65.4764 12.5676H50.2856V21.0321C50.3201 22.0477 50.6749 22.8928 51.3502 23.5675C52.0254 24.2422 52.852 24.5797 53.8299 24.5803V24.8577H46.4615V24.5803C46.9228 24.5891 47.3812 24.5039 47.809 24.3299C48.2367 24.1558 48.625 23.8965 48.9503 23.5675C49.6332 22.8928 49.9862 22.0477 50.0096 21.0321V3.80804C49.9862 2.80418 49.6332 1.96185 48.9503 1.28107C48.6262 0.949916 48.2383 0.688592 47.8104 0.513025C47.3825 0.337458 46.9235 0.251327 46.4615 0.259882V0H53.8322V0.259882C53.3714 0.250782 52.9136 0.3367 52.4871 0.512335C52.0606 0.68797 51.6745 0.949595 51.3525 1.28107C50.6747 1.96185 50.3198 2.80418 50.2879 3.80804V12.2924H65.4719C65.8267 12.2924 66.0391 12.0789 66.1091 11.6519V2.49257C66.1134 2.19991 66.0586 1.90941 65.948 1.63864C65.8375 1.36787 65.6734 1.12246 65.4658 0.917231C65.2624 0.704397 65.0175 0.536133 64.7464 0.42301C64.4752 0.309886 64.1837 0.254347 63.8902 0.259882H63.875V0H71.2434V0.259882H71.2267C70.9337 0.254771 70.6428 0.310515 70.3722 0.423626C70.1016 0.536737 69.8572 0.704778 69.6542 0.917231C69.4454 1.12194 69.2803 1.36712 69.1686 1.63792C69.057 1.90871 69.0013 2.19947 69.0048 2.49257ZM95.3357 24.5634H95.3524V24.8233H88.0167V24.5634H88.0334C88.6216 24.5598 89.1847 24.3234 89.6006 23.9053C90.0165 23.4872 90.2518 22.9212 90.2554 22.33V17.8646C90.2554 15.9838 89.8364 14.3738 88.9984 13.0346C88.1604 11.6955 87.1042 10.9339 85.8297 10.7499C85.7433 10.7494 85.6569 10.7435 85.5712 10.7324H79.4407C79.0859 10.7324 78.8735 10.9459 78.8035 11.3729V22.33C78.7994 22.6228 78.8545 22.9135 78.9654 23.1843C79.0764 23.4551 79.241 23.7004 79.4491 23.9053C79.6496 24.1171 79.8915 24.2849 80.1597 24.3982C80.4278 24.5114 80.7164 24.5677 81.0072 24.5634H81.0247V24.8233H73.6889V24.5634H73.7057C74.2939 24.5598 74.8569 24.3234 75.2728 23.9053C75.6888 23.4872 75.924 22.9212 75.9276 22.33V2.54455C75.9313 2.25094 75.8751 1.95968 75.7625 1.68873C75.6499 1.41779 75.4833 1.17291 75.2729 0.969207C75.0701 0.757968 74.8264 0.590677 74.5569 0.477629C74.2874 0.364581 73.9977 0.308167 73.7057 0.311858H73.6889V0.0519764H81.0247V0.311858H81.0072C80.7164 0.307651 80.428 0.363867 80.1599 0.476984C79.8917 0.590101 79.6498 0.757677 79.4491 0.969207C79.2411 1.17424 79.0766 1.41957 78.9656 1.69035C78.8547 1.96113 78.7995 2.25172 78.8035 2.54455V9.81513C78.8035 10.1718 79.0159 10.3853 79.4407 10.4557H84.0899C84.7573 10.4205 85.4173 10.2982 86.0533 10.0918C86.6683 9.87558 87.2574 9.59128 87.8099 9.24416C88.353 8.89233 88.8454 8.46691 89.2729 7.97991C89.718 7.5104 90.0948 6.98005 90.3922 6.40456C90.6903 5.81703 90.9158 5.19507 91.0637 4.55252C91.1205 4.28517 91.1495 4.01262 91.1504 3.73924C91.1471 3.20814 91.0167 2.68564 90.7702 2.21588C90.2541 1.24769 89.462 0.647412 88.3939 0.415047C88.1576 0.362207 87.9176 0.32771 87.676 0.311858H87.6418V0.0519764H94.976V0.311858C94.9068 0.312171 94.8376 0.317793 94.7692 0.328674C94.0997 0.365123 93.4545 0.593492 92.91 0.986787C92.3785 1.36835 91.9613 1.88919 91.704 2.49257C91.6351 2.64777 91.5841 2.81035 91.5519 2.97718C91.5047 3.18273 91.4705 3.39104 91.4492 3.6009C91.401 4.06223 91.3187 4.51931 91.2029 4.96833C91.0189 5.62559 90.7586 6.25876 90.4272 6.85477C90.0865 7.43885 89.6696 7.97456 89.1877 8.4477C88.7187 8.93045 88.1841 9.34423 87.6 9.67678C87.3063 9.84718 87.0014 9.99734 86.6875 10.1262C86.5385 10.1955 86.3836 10.259 86.2229 10.3166C86.1423 10.3402 86.0564 10.3693 85.9643 10.4037L85.7575 10.4557C85.8382 10.4547 85.9188 10.4604 85.9986 10.4725C86.5871 10.4816 87.1719 10.569 87.7376 10.7324C88.7276 11.0107 89.6492 11.493 90.4438 12.1486C91.2384 12.8041 91.8887 13.6187 92.3534 14.5404C92.873 15.57 93.1388 16.7101 93.1282 17.8646V22.33C93.1241 22.6228 93.1792 22.9135 93.2902 23.1843C93.4011 23.4551 93.5657 23.7004 93.7738 23.9053C93.9748 24.1175 94.2174 24.2855 94.4862 24.3988C94.755 24.5121 95.0443 24.5681 95.3357 24.5634ZM123.251 24.5978V24.8233C123.252 24.8303 123.251 24.8374 123.249 24.8441C123.247 24.8508 123.243 24.8568 123.238 24.8618C123.233 24.8668 123.227 24.8705 123.22 24.8727C123.214 24.875 123.207 24.8756 123.2 24.8745H116.001V24.5978H116.018C116.465 24.5866 116.807 24.4592 117.043 24.2157C117.161 24.0916 117.253 23.945 117.314 23.7844C117.375 23.6238 117.403 23.4525 117.396 23.2808C117.388 22.9661 117.324 22.6554 117.206 22.3636C117.206 22.3636 114.279 15.1901 114.189 14.983C114.012 14.5244 112.588 14.6061 111.808 14.6061C109.511 14.6061 107.456 15.1221 105.625 16.2182C103.794 17.3143 102.436 18.7574 101.553 20.546L101.345 21.0474C101.161 21.4923 101.062 21.9682 101.053 22.45C101.053 23.2006 101.334 23.7833 101.897 24.1981C102.264 24.4401 102.729 24.5729 103.292 24.5963H103.343V24.873H96.0764V24.5963H96.1281C97.1379 24.5617 98.1079 24.2098 99.0382 23.5407C99.9341 22.9124 100.643 22.0503 101.088 21.0474L108.114 3.82409C108.287 3.40079 108.38 2.94872 108.389 2.49105C108.389 1.87956 108.2 1.36591 107.821 0.950098C107.201 0.512375 106.581 0.293259 105.961 0.292749H105.944V0.0175803H110.955L120.099 22.3651C120.382 23.0088 120.839 23.5603 121.416 23.9573C122.019 24.3843 122.625 24.5978 123.234 24.5978H123.251ZM113.28 14.3157C113.66 14.3065 113.812 14.1406 113.71 13.8831C113.691 13.8349 109.13 2.59882 109.13 2.59882C108.825 2.97027 108.575 3.3843 108.389 3.82791L102.034 19.3895C102.136 19.2285 102.245 19.0669 102.362 18.9049C103.9 16.7823 106.071 15.3888 108.872 14.6749C110.412 14.3432 113.279 14.3157 113.28 14.3157ZM141.196 22.3827C141.843 23.0292 142.59 23.5668 143.408 23.9749C144.252 24.4019 144.978 24.6154 145.586 24.6154H145.604V24.8921H138.509V24.5978H138.526C139.077 24.5978 139.347 24.4195 139.335 24.0628C139.335 23.6592 138.997 23.0987 138.32 22.3812L138.285 22.346L133.739 17.6567L133.48 17.3792L132.206 16.0798C132.13 16.0168 132.049 15.9588 131.965 15.9063C131.632 15.6413 131.316 15.3646 131.018 15.0762C130.902 14.9488 130.782 14.8214 130.656 14.694C130.003 13.9415 129.474 13.0883 129.089 12.1671V22.3827C129.085 22.6762 129.141 22.9673 129.254 23.2382C129.366 23.509 129.533 23.7538 129.743 23.9573C129.948 24.17 130.195 24.3381 130.468 24.4513C130.74 24.5645 131.033 24.6203 131.328 24.6154V24.8921H123.975V24.6124H123.991C124.579 24.6088 125.142 24.3724 125.558 23.9545C125.974 23.5366 126.209 22.9708 126.213 22.3797V2.52697C126.217 2.23336 126.161 1.9421 126.048 1.67115C125.936 1.40021 125.769 1.15533 125.558 0.951627C125.356 0.740388 125.112 0.573097 124.842 0.460049C124.573 0.347001 124.283 0.290587 123.991 0.294278H123.975V0.0175803H137.492C137.578 0.0285264 137.665 0.0341424 137.751 0.0343962H137.768L138.337 0.0863726C138.69 0.13257 139.04 0.202021 139.384 0.294278C140.887 0.674929 142.236 1.44235 143.431 2.59653C144.266 3.43301 144.922 4.4314 145.36 5.5309C146.209 7.65232 146.209 10.022 145.36 12.1434C144.921 13.2428 144.265 14.2411 143.431 15.0777C142.239 16.2436 140.89 17.0167 139.384 17.3968C138.68 17.5689 137.957 17.6561 137.232 17.6567C137.013 17.6567 136.8 17.6506 136.594 17.6391L141.175 22.3476C141.176 22.3546 141.178 22.3613 141.182 22.3674C141.185 22.3734 141.19 22.3787 141.196 22.3827ZM131.462 15.129C133.058 16.5491 134.849 17.2992 136.835 17.3792H137.216C139.473 17.3771 141.638 16.4817 143.243 14.8867C144.15 13.9062 144.604 12.7755 144.603 11.4944C144.603 10.3061 144.313 9.03651 143.734 7.68563C143.155 6.33475 142.267 5.04808 141.072 3.82562C140.206 2.98092 139.216 2.27462 138.137 1.73127C137.167 1.23529 136.147 0.846261 135.095 0.570976C134.914 0.514459 134.73 0.468269 134.544 0.432627C134.158 0.365803 133.768 0.319622 133.377 0.294278H131.324C131.029 0.289398 130.737 0.345198 130.464 0.458245C130.191 0.571293 129.945 0.739197 129.739 0.951627C129.529 1.15537 129.362 1.40027 129.25 1.67122C129.137 1.94217 129.081 2.23341 129.085 2.52697V11.3553C129.497 12.6873 130.223 13.8991 131.203 14.8867C131.298 14.9794 131.385 15.0602 131.465 15.129H131.462Z" fill="#7F1023"/>
</g>
<defs>
<clipPath id="clip0_4031_2646">
<rect width="146" height="42" fill="white"/>
</clipPath>
</defs>
</svg>
