<svg width="238" height="80" viewBox="0 0 238 80" fill="none" xmlns="http://www.w3.org/2000/svg">
<path d="M238 0H0V80H238V0Z" fill="#E30016"/>
<path fill-rule="evenodd" clip-rule="evenodd" d="M201.791 29.7087H202.494C202.732 29.7308 202.972 29.6786 203.179 29.5594C203.279 29.4789 203.344 29.3636 203.362 29.2367C203.38 29.1098 203.349 28.9808 203.275 28.8759C203.215 28.7895 203.129 28.7239 203.029 28.6882C202.84 28.6351 202.643 28.6139 202.446 28.6256H201.791V29.7087ZM201.222 31.7255V28.1395H202.461C202.768 28.1254 203.075 28.1595 203.371 28.2405C203.557 28.3024 203.716 28.4244 203.824 28.5871C203.933 28.7407 203.992 28.9238 203.993 29.1118C203.994 29.2385 203.969 29.3641 203.922 29.4814C203.874 29.5987 203.803 29.7053 203.714 29.7953C203.514 29.9937 203.248 30.1104 202.967 30.1226C203.079 30.1672 203.182 30.2325 203.27 30.3152C203.473 30.5302 203.651 30.7676 203.8 31.0227L204.239 31.7255H203.535L203.212 31.1575C203.06 30.8479 202.857 30.5663 202.61 30.3248C202.467 30.2327 202.298 30.1904 202.128 30.2044H201.791V31.7255H201.222ZM202.668 27.0997C202.189 27.1027 201.718 27.2269 201.299 27.4608C200.861 27.6979 200.5 28.0553 200.259 28.4908C200.014 28.912 199.885 29.3902 199.885 29.8771C199.885 30.364 200.014 30.8423 200.259 31.2634C200.496 31.6984 200.854 32.056 201.29 32.2935C201.71 32.5365 202.187 32.6644 202.673 32.6644C203.158 32.6644 203.635 32.5365 204.056 32.2935C204.488 32.0545 204.842 31.6971 205.077 31.2634C205.317 30.8441 205.443 30.3696 205.443 29.8868C205.441 29.3974 205.314 28.9168 205.072 28.4908C204.831 28.0553 204.47 27.6979 204.032 27.4608C203.614 27.2283 203.146 27.1041 202.668 27.0997ZM202.668 26.551C203.241 26.5544 203.805 26.7017 204.306 26.9794C204.836 27.2582 205.272 27.6868 205.559 28.2117C205.848 28.7193 206 29.2932 206 29.8771C206 30.4611 205.848 31.035 205.559 31.5426C205.273 32.0618 204.845 32.4891 204.326 32.7749C203.819 33.0609 203.247 33.2112 202.666 33.2112C202.084 33.2112 201.512 33.0609 201.005 32.7749C200.487 32.4892 200.061 32.0617 199.777 31.5426C199.488 31.035 199.336 30.4611 199.336 29.8771C199.336 29.2932 199.488 28.7193 199.777 28.2117C200.064 27.6885 200.498 27.2603 201.025 26.9794C201.528 26.7015 202.093 26.5542 202.668 26.551ZM126.167 27.1719V27.0709C125.959 27.0709 125.858 26.965 125.858 26.8639V25.4198C125.858 25.2128 125.959 25.2128 126.167 25.1069C126.607 25.0192 127.057 24.9852 127.506 25.0059C127.955 24.9928 128.404 25.0267 128.846 25.1069C128.952 25.2128 129.053 25.2128 129.053 25.4198V26.8639C129.05 26.9177 129.027 26.9683 128.989 27.0064C128.95 27.0445 128.9 27.0674 128.846 27.0709H128.745V27.1719H126.167ZM127.815 52H127.097C125.343 51.8989 123.796 51.278 124.104 50.3538C124.104 46.7485 124.003 43.1335 123.69 39.5378C123.589 37.8868 124.21 35.5186 124.928 34.4885C125.858 33.2514 126.273 30.0552 126.167 27.7929H128.745C128.643 30.0552 129.159 33.2514 129.983 34.4885C130.898 36.0074 131.33 37.7683 131.221 39.5378C131.014 43.1383 130.807 46.7581 130.807 50.3538C131.12 51.278 129.675 51.8989 127.815 52ZM100.994 42.7292V38.3008H111.205V47.3598C109.607 48.496 107.876 49.4305 106.049 50.142C104.311 50.6695 102.5 50.9133 100.685 50.864C98.1074 50.864 96.0451 50.4501 94.3922 49.521C92.7713 48.6921 91.4678 47.3544 90.6819 45.7136C89.7439 43.8633 89.2834 41.8083 89.3423 39.7352C89.3054 37.6533 89.8031 35.5968 90.7879 33.7616C91.7338 32.0078 93.2139 30.6002 95.0138 29.7424C96.8849 29.0104 98.8838 28.6601 100.893 28.7123C103.263 28.7123 105.119 28.9192 106.256 29.4343C107.385 29.8021 108.387 30.4813 109.147 31.3934C110.01 32.36 110.613 33.5292 110.901 34.7917L104.511 35.9277C104.257 35.1916 103.791 34.5469 103.172 34.0745C102.456 33.6449 101.631 33.431 100.796 33.4584C100.134 33.44 99.4762 33.5692 98.8703 33.8365C98.2644 34.1037 97.7256 34.5024 97.2931 35.0035C96.4643 36.0336 95.9535 37.4777 95.9535 39.6389C95.9535 42.0072 96.4643 43.6534 97.2931 44.6883C97.7813 45.1676 98.3619 45.5428 98.9998 45.7911C99.6376 46.0393 100.319 46.1554 101.003 46.1323C101.703 46.1394 102.399 46.0354 103.066 45.8243C103.894 45.5754 104.69 45.2296 105.437 44.7942V42.7292H100.994ZM32 29.7327H38.6016V45.8195H49.0292V51.1769H32.0096L32 29.7327ZM60.0543 29.7327H77.8834V34.3633H66.7812V37.6606H77.0932V41.9927H66.7812V46.219H78.2256V51.1769H60.064L60.0543 29.7327ZM141.731 40.4476C141.731 36.8423 142.656 34.267 144.622 32.3128C146.588 30.3585 149.364 29.4247 152.872 29.4247C156.38 29.4247 159.165 30.3537 161.121 32.3128C163.082 34.166 164.012 36.7412 164.012 40.2406C164.084 42.3687 163.66 44.4844 162.774 46.4212C161.893 47.9701 160.61 49.2524 159.059 50.1324C157.512 51.0614 155.45 51.4705 153.079 51.4705C151.028 51.5245 148.988 51.1387 147.099 50.3393C145.444 49.5298 144.075 48.2351 143.177 46.6281C142.175 44.7302 141.681 42.6065 141.741 40.462L141.731 40.4476ZM148.328 40.4476C148.328 42.6089 148.742 44.1588 149.566 45.083C149.979 45.5482 150.488 45.9183 151.057 46.1677C151.627 46.417 152.245 46.5396 152.867 46.527C153.492 46.5615 154.116 46.4488 154.69 46.1979C155.263 45.9471 155.769 45.5652 156.168 45.083C156.993 44.1588 157.406 42.511 157.406 40.1395C157.406 38.0793 156.993 36.6353 156.168 35.8074C155.742 35.3312 155.217 34.9548 154.628 34.7052C154.04 34.4555 153.404 34.3388 152.766 34.3633C152.158 34.351 151.556 34.4743 151.003 34.7241C150.449 34.9739 149.958 35.344 149.566 35.8074C148.752 36.6497 148.337 38.3008 148.337 40.462L148.328 40.4476ZM175.683 29.7472H181.87L190.019 41.4921V29.7472H196.283V51.1769H190.019L181.948 39.3309V51.1769H175.683V29.7472Z" fill="white"/>
</svg>
